# xmcd
#
# Track frame offsets:
#	150
#	13949
#	31145
#	48488
#	68282
#	84915
#	104602
#	123095
#	139999
#	156456
#	168615
#	183526
#	203923
#	221706
#	239907
#	280394
#
# Disc length: 4089 seconds
#
# Revision: 1
# Processed by: cddbd v1.5.2PL0 Copyright (c) Steve Scherf et al.
# Submitted via: audiograbber 1.82.02
#
DISCID=f00ff710
DTITLE=Rich Boy - Rich Boy (edited)
DYEAR=2007
DGENRE=
TTITLE0=Rich Boy - The Madness
TTITLE1=Rich Boy f David Banner and Attitude - Role Models
TTITLE2=Rich Boy - Boy Looka Here
TTITLE3=Rich Boy f Polow Da Don - Throw Some D's
TTITLE4=Rich Boy f Cutty - What It Do
TTITLE5=Rich Boy f Polow Da Don and Keri - Good Things
TTITLE6=Rich Boy - Hustla Balla Gangsta Mack
TTITLE7=Rich Boy - Touch That A..
TTITLE8=Rich Boy - On The Regular
TTITLE9=Rich Boy f Mark Twain - Gangsta (interlude)
TTITLE10=Rich Boy - Get To Poppin
TTITLE11=Rich Boy f Big Boi and Pastor Troy - And I Love You
TTITLE12=Rich Boy f Keri and Rock City - Lost Girls
TTITLE13=Rich Boy f John Legend - Ghetto Rich
TTITLE14=Rich Boy - Let's Get This Paper
TTITLE15=Rich Boy f Andre 3000, Jim Jones, Nelly, Murphy Lee, The Game - Throw 
TTITLE15=Some D's (remix)
EXTD=
EXTT0=
EXTT1=
EXTT2=
EXTT3=
EXTT4=
EXTT5=
EXTT6=
EXTT7=
EXTT8=
EXTT9=
EXTT10=
EXTT11=
EXTT12=
EXTT13=
EXTT14=
EXTT15=
PLAYORDER=
